# xmcd
#
# Track frame offsets: 
#        150
#        14675
#        33450
#        51912
#        67625
#        88687
#        106812
#        127100
#        142425
#        162112
#        180375
#        196412
#        211237
#        226000
#        232675
#        261475
#        278975
#        295400
#        313911
#        330200
#
# Disc length: 4769 seconds
#
# Revision: 0
# Processed by: cddbd v1.5.1PL2 Copyright (c) Steve Scherf et al.
# Submitted via: ExactAudioCopy v0.95b3
#
DISCID=21129f14
DTITLE=Various Artist - Kuschelrock 15 [CD 1)
DYEAR=2001
DGENRE=Soft Rock
TTITLE0=Atomic Kitten - Eternal Flame
TTITLE1=O-Town - All Or Nothing
TTITLE2=Jon Bon Jovi - Thank You For Loving Me
TTITLE3=Melanie Thornton - Love How You Love Me
TTITLE4=Mariah Carey Feat. Boyz II Men - One Sweet Day
TTITLE5=Lil' Kim Feat. Phil Collins - In The Air Tonite
TTITLE6=Brandy and Ray J - Another Day In Paradise
TTITLE7=Lionel Richie and Juliette - The One
TTITLE8=Aerosmith - Fly Away From Here
TTITLE9=Roxette - Milk And Toast And Honey
TTITLE10=Bosson - One In A Million
TTITLE11=Nicole Da Silva - I Miss You
TTITLE12=No Angels - That's The Reason
TTITLE13=Emma Bunton - What Took You So Long?
TTITLE14=Ronan Keating - The Way You Make Me Feel
TTITLE15=Band Ohne Namen - Slipping Into You
TTITLE16=Laith Al-Deen - Bilder Von Dir
TTITLE17=Dido - Here With Me
TTITLE18=Enya - Only Time
TTITLE19=Sasha - Why Does Everybody Hurt
EXTD=
EXTT0=
EXTT1=
EXTT2=
EXTT3=
EXTT4=
EXTT5=
EXTT6=
EXTT7=
EXTT8=
EXTT9=
EXTT10=
EXTT11=
EXTT12=
EXTT13=
EXTT14=
EXTT15=
EXTT16=
EXTT17=
EXTT18=
EXTT19=
PLAYORDER=
